<svg width="260" height="260" viewBox="0 0 260 260" fill="none" xmlns="http://www.w3.org/2000/svg">
<path d="M130 260C201.797 260 260 201.797 260 130C260 58.203 201.797 0 130 0C58.203 0 0 58.203 0 130C0 201.797 58.203 260 130 260Z" fill="#EDFF58"/>
<path fill-rule="evenodd" clip-rule="evenodd" d="M171.379 39.9877C181.38 43.4147 207.353 57.7434 213.222 98.6892C214.409 106.966 215.572 119.944 207.536 139.487C200.739 158.891 184.121 174.943 182.028 183.461C180.553 196.179 188.169 213.785 204.875 236.281C183.704 251.225 157.877 260 130 260C121.632 260 113.448 259.209 105.519 257.698L105.497 257.803C110.302 238.71 112.038 226.155 110.702 220.138C109 212.469 104.125 207.038 99.0225 204.073C95.5276 202.043 67.8443 209.109 62.3048 200.416C61.3376 198.899 60.3483 196.926 61.3376 185.515C61.5181 183.433 57.5243 180.452 57.5243 176.149C57.5243 174.481 58.7954 173.318 61.3376 172.659C62.0366 170.827 55.9618 172.148 55.9618 167.337C55.9618 166.06 56.6881 164.598 58.8683 160.065C59.1454 159.489 59.5239 158.396 60.0038 156.785C56.7064 154.988 54.4105 153.725 53.1159 152.998C47.973 150.107 45.5657 147.411 46.2702 143.403C47.6854 138.984 58.848 130.2 64.2758 119.117C68.3768 110.742 52.4399 88.3898 80.017 55.8943C107.594 23.3988 161.379 36.5606 171.379 39.9877Z" fill="black"/>
</svg>
